<svg width="36" height="36" viewBox="0 0 36 36" fill="none" xmlns="http://www.w3.org/2000/svg">
<path d="M35.9506 13.8033C35.8324 13.4412 35.5221 13.1826 35.1453 13.1235L23.9142 11.5275L18.8603 1.36788C18.6903 1.028 18.3431 0.813721 17.9662 0.813721C17.5894 0.813721 17.2421 1.028 17.0722 1.37527L12.0847 11.5645L0.8537 13.2343C0.47687 13.2935 0.166539 13.5521 0.0483182 13.9141C-0.0699031 14.2762 0.0335405 14.6752 0.306927 14.9338L8.45681 22.8324L6.57265 34.0191C6.50615 34.396 6.66132 34.7728 6.97165 34.9945C7.14159 35.1201 7.34848 35.1866 7.55537 35.1866C7.71792 35.1866 7.87309 35.1496 8.02086 35.0683L18.0475 29.7558L28.1037 35.0092C28.2515 35.0831 28.4066 35.1201 28.5618 35.1201C29.1086 35.1201 29.5593 34.6693 29.5593 34.1226C29.5593 34.0413 29.5519 33.9674 29.5297 33.8935L27.5865 22.7733L35.6846 14.8303C35.9728 14.5643 36.0689 14.1653 35.9506 13.8033ZM25.8279 21.7167C25.5915 21.9458 25.4881 22.2783 25.5472 22.6034L27.2392 32.3049L18.5056 27.746C18.2174 27.5908 17.8702 27.5982 17.5746 27.746L8.87058 32.3566L10.5035 22.6403C10.5552 22.3152 10.4518 21.9901 10.2153 21.7611L3.15163 14.9042L12.8975 13.456C13.2226 13.4043 13.5034 13.2048 13.6438 12.9092L17.9736 4.06481L22.3626 12.8871C22.5104 13.1826 22.7911 13.3821 23.1162 13.4338L32.8695 14.8229L25.8279 21.7167Z" fill="#FFC700"/>
</svg>
